<?xml version="1.0" standalone="no"?><!DOCTYPE svg PUBLIC "-//W3C//DTD SVG 1.1//EN" "http://www.w3.org/Graphics/SVG/1.1/DTD/svg11.dtd"><svg t="1598842751291" class="icon" viewBox="0 0 1024 1024" version="1.1" xmlns="http://www.w3.org/2000/svg" p-id="4740" xmlns:xlink="http://www.w3.org/1999/xlink" width="200" height="200"><defs><style type="text/css"></style></defs><path d="M512 0C229.220848 0 0 229.220848 0 512S229.220848 1024 512 1024 1024 794.779152 1024 512C1023.813818 229.313939 794.686061 0.186182 512 0z m0 957.936485c-246.287515 0-445.936485-199.64897-445.936485-445.936485S265.712485 66.063515 512 66.063515 957.936485 265.712485 957.936485 512c-0.372364 246.132364-199.804121 445.595152-445.936485 445.936485z" fill="#262525" p-id="4741"></path><path d="M518.174755 311.298126a49.214061 58.802424 14.08 1 0 28.61049-114.071646 49.214061 58.802424 14.08 1 0-28.61049 114.071646Z" fill="#F7931E" p-id="4742"></path><path d="M613.655273 663.303758c-0.310303 30.72-23.769212 56.692364-55.389091 61.284848a239.491879 239.491879 0 0 1-27.523879 0l12.536242-133.957818 15.701334-167.439515c1.737697-18.742303 9.402182-36.83297-8.719515-45.552485l-6.609455-2.327273c-38.167273-8.998788-78.351515 2.978909-104.510061 31.123394-33.140364 27.182545-44.621576 71.617939-28.547878 110.529939-0.124121-31.185455 23.893333-57.592242 56.071757-61.626181a24.60703 24.60703 0 0 1 12.536243 0c2.482424 1.303273 3.785697 4.033939 3.13406 6.702545l-12.877575 133.957818-15.701334 167.749818c-0.682667 10.146909 1.985939 20.262788 7.664485 28.827152 3.692606 3.661576 8.067879 6.609455 12.908606 8.688485l6.950788 2.668606c38.229333 8.843636 78.382545-3.258182 104.510061-31.464727 32.271515-27.120485 43.442424-70.749091 27.865212-109.164606z" fill="#262525" p-id="4743"></path></svg>