<?xml version="1.0" standalone="no"?><!DOCTYPE svg PUBLIC "-//W3C//DTD SVG 1.1//EN" "http://www.w3.org/Graphics/SVG/1.1/DTD/svg11.dtd"><svg t="1609148750256" class="icon" viewBox="0 0 1024 1024" version="1.1" xmlns="http://www.w3.org/2000/svg" p-id="5384" xmlns:xlink="http://www.w3.org/1999/xlink" width="200" height="200"><defs><style type="text/css"></style></defs><path d="M498.215385 0C729.206154 0 917.661538 188.455385 917.661538 419.446154c0 103.857231-39.936 204.8-112.285538 282.466461l-9.334154 9.334154-295.384615 311.296-294.793846-310.744615-13.075693-13.115077A428.110769 428.110769 0 0 1 78.769231 419.446154C78.769231 188.455385 267.224615 0 498.215385 0z m0 59.076923c-198.380308 0-360.369231 161.988923-360.369231 359.581539A368.088615 368.088615 0 0 0 235.323077 657.723077l12.878769 12.878769 252.455385 266.200616 253.046154-266.752 9.13723-9.097847A355.249231 355.249231 0 0 0 858.584615 419.446154c0-198.380308-161.988923-360.369231-360.36923-360.369231z m7.483077 174.867692c105.944615 0 192.866462 86.921846 192.866461 192.905847 0 105.944615-86.921846 192.905846-192.905846 192.905846-108.701538 0-195.229538-85.819077-192.905846-192.905846 0-105.944615 86.921846-192.905846 192.905846-192.905847z m0 59.076923c-73.373538 0-133.868308 60.494769-133.907693 134.459077-1.575385 74.24 57.895385 133.198769 133.907693 133.19877a134.577231 134.577231 0 0 0 133.789538-133.828923A134.577231 134.577231 0 0 0 505.698462 293.021538z" p-id="5385"></path></svg>