<?xml version="1.0" standalone="no"?><!DOCTYPE svg PUBLIC "-//W3C//DTD SVG 1.1//EN" "http://www.w3.org/Graphics/SVG/1.1/DTD/svg11.dtd"><svg t="1595225317284" class="icon" viewBox="0 0 1024 1024" version="1.1" xmlns="http://www.w3.org/2000/svg" p-id="2289" xmlns:xlink="http://www.w3.org/1999/xlink" width="200" height="200"><defs><style type="text/css"></style></defs><path d="M352.075294 361.411765a129.807059 129.807059 0 0 0 25.6-156.310589 133.421176 133.421176 0 0 0-168.357647-57.223529L202.992941 150.588235a580.367059 580.367059 0 0 0 149.082353 210.82353zM882.145882 809.261176a131.011765 131.011765 0 0 0-193.65647-161.731764 816.188235 816.188235 0 0 0 157.515294 208.414117 129.807059 129.807059 0 0 0 36.141176-46.682353z" fill="#EA4F1A" opacity=".2" p-id="2290"></path><path d="M918.287059 686.08a170.767059 170.767059 0 0 0-301.176471-22.287059 184.621176 184.621176 0 0 0-12.047059 22.588235 612.291765 612.291765 0 0 1-268.649411-258.710588c0-1.505882-1.807059-3.312941-2.710589-5.421176a170.767059 170.767059 0 1 0-231.905882-213.232941 168.96 168.96 0 0 0 6.324706 133.421176A1186.635294 1186.635294 0 0 0 355.388235 683.670588 1183.924706 1183.924706 0 0 0 692.705882 911.058824a168.658824 168.658824 0 0 0 69.270589 14.757647 170.465882 170.465882 0 0 0 156.009411-240.941177z m-210.82353 188.837647A1152.903529 1152.903529 0 0 1 143.661176 325.270588 130.409412 130.409412 0 0 1 202.992941 150.588235l6.324706-3.614117a133.421176 133.421176 0 0 1 168.357647 58.729411 129.807059 129.807059 0 0 1-25.6 155.708236 131.915294 131.915294 0 0 1-33.129412 23.792941 37.948235 37.948235 0 0 0-20.178823 21.383529 37.345882 37.345882 0 0 0 0 28.611765c1.505882 3.312941 3.011765 6.625882 4.818823 9.637647A653.251765 653.251765 0 0 0 591.510588 722.823529a37.044706 37.044706 0 0 0 30.117647 0 38.249412 38.249412 0 0 0 21.38353-20.48 142.155294 142.155294 0 0 1 9.938823-18.672941 127.698824 127.698824 0 0 1 36.74353-37.345882 131.011765 131.011765 0 0 1 193.65647 161.731765 132.818824 132.818824 0 0 1-173.477647 65.957647z" fill="#666767" p-id="2291"></path></svg>