<?xml version="1.0" standalone="no"?><!DOCTYPE svg PUBLIC "-//W3C//DTD SVG 1.1//EN" "http://www.w3.org/Graphics/SVG/1.1/DTD/svg11.dtd"><svg t="1598842676196" class="icon" viewBox="0 0 1024 1024" version="1.1" xmlns="http://www.w3.org/2000/svg" p-id="3235" xmlns:xlink="http://www.w3.org/1999/xlink" width="200" height="200"><defs><style type="text/css"></style></defs><path d="M140.8 819.2h-51.2C40.96 819.2 0 778.24 0 729.6v-204.8C0 476.16 40.96 435.2 89.6 435.2h51.2C189.44 435.2 230.4 476.16 230.4 524.8v204.8C230.4 778.24 189.44 819.2 140.8 819.2z m-51.2-307.2c-7.68 0-12.8 5.12-12.8 12.8v204.8c0 7.68 5.12 12.8 12.8 12.8h51.2c7.68 0 12.8-5.12 12.8-12.8v-204.8c0-7.68-5.12-12.8-12.8-12.8h-51.2zM934.4 819.2h-51.2c-48.64 0-89.6-40.96-89.6-89.6v-204.8c0-48.64 40.96-89.6 89.6-89.6h51.2c48.64 0 89.6 40.96 89.6 89.6v204.8c0 48.64-40.96 89.6-89.6 89.6z m-51.2-307.2c-7.68 0-12.8 5.12-12.8 12.8v204.8c0 7.68 5.12 12.8 12.8 12.8h51.2c7.68 0 12.8-5.12 12.8-12.8v-204.8c0-7.68-5.12-12.8-12.8-12.8h-51.2z" fill="#22252A" p-id="3236"></path><path d="M138.24 463.36l-76.8-5.12C79.36 158.72 235.52 2.56 512 2.56S942.08 161.28 960 460.8l-76.8 5.12C867.84 204.8 747.52 79.36 512 79.36S153.6 204.8 138.24 463.36zM780.8 962.56h-110.08v-76.8h110.08c35.84 0 79.36-10.24 102.4-97.28l74.24 20.48c-35.84 128-115.2 153.6-176.64 153.6z" fill="#22252A" p-id="3237"></path><path d="M576 1024C512 1024 460.8 972.8 460.8 908.8s51.2-115.2 115.2-115.2 115.2 51.2 115.2 115.2-51.2 115.2-115.2 115.2z m0-153.6c-20.48 0-38.4 17.92-38.4 38.4s17.92 38.4 38.4 38.4 38.4-17.92 38.4-38.4-17.92-38.4-38.4-38.4z" fill="#22252A" p-id="3238"></path></svg>