<?xml version="1.0" standalone="no"?><!DOCTYPE svg PUBLIC "-//W3C//DTD SVG 1.1//EN" "http://www.w3.org/Graphics/SVG/1.1/DTD/svg11.dtd"><svg t="1597977155225" class="icon" viewBox="0 0 1024 1024" version="1.1" xmlns="http://www.w3.org/2000/svg" p-id="3420" xmlns:xlink="http://www.w3.org/1999/xlink" width="200" height="200"><defs><style type="text/css"></style></defs><path d="M130.773333 901.358933c-3.345067 0-6.289067-0.836267-8.7552-2.4832-14.72-9.787733-10.845867-42.376533-2.730666-94.8736 4.616533-29.841067 10.9312-70.724267 3.447466-77.960533C45.192533 651.076267 2.4832 555.639467 2.4832 457.309867 2.4832 227.712 231.048533 40.9088 512 40.9088s509.5168 186.8032 509.5168 416.401067c0 229.6064-228.565333 416.4096-509.5168 416.4096-87.082667 0-173.047467-18.269867-248.593067-52.821334a5.000533 5.000533 0 0 0-2.056533-0.3584c-12.1856 0-38.877867 21.0176-62.421333 39.569067-28.117333 22.126933-52.4032 41.250133-68.155734 41.250133zM512 53.009067c-274.2784 0-497.416533 181.367467-497.416533 404.3008 0 95.0272 41.3952 187.374933 116.548266 260.036266 11.195733 10.820267 7.5008 40.6528 0.1024 88.507734-4.727467 30.557867-11.869867 76.740267-2.517333 82.961066a3.7888 3.7888 0 0 0 2.056533 0.452267c11.554133 0 37.649067-20.539733 60.663467-38.664533 27.537067-21.674667 53.5296-42.146133 69.905067-42.146134 2.594133 0 4.983467 0.4864 7.0912 1.450667 73.975467 33.8432 158.190933 51.729067 243.5584 51.729067 274.2784 0 497.416533-181.367467 497.416533-404.309334C1009.416533 234.376533 786.2784 53.009067 512 53.009067z" fill="#27B8CC" p-id="3421"></path><path d="M288.7168 540.074667c-42.786133 0-77.602133-34.816-77.602133-77.602134 0-42.794667 34.816-77.610667 77.602133-77.610666 42.794667 0 77.610667 34.816 77.610667 77.610666 0 42.786133-34.816 77.602133-77.610667 77.602134z m0-143.104c-36.113067 0-65.501867 29.380267-65.501867 65.5104 0 36.113067 29.380267 65.501867 65.501867 65.501866 36.1216 0 65.5104-29.380267 65.5104-65.501866 0-36.130133-29.3888-65.5104-65.5104-65.5104zM748.2112 540.074667c-42.786133 0-77.5936-34.816-77.5936-77.602134 0-42.794667 34.807467-77.610667 77.5936-77.610666 42.794667 0 77.610667 34.816 77.610667 77.610666-0.008533 42.786133-34.824533 77.602133-77.610667 77.602134z m0-143.104c-36.113067 0-65.493333 29.380267-65.493333 65.5104 0 36.113067 29.371733 65.501867 65.493333 65.501866s65.5104-29.380267 65.5104-65.501866c-0.008533-36.130133-29.3888-65.5104-65.5104-65.5104zM518.459733 540.074667c-42.786133 0-77.5936-34.816-77.5936-77.602134 0-42.794667 34.807467-77.610667 77.5936-77.610666 42.8032 0 77.6192 34.816 77.6192 77.610666 0 42.786133-34.824533 77.602133-77.6192 77.602134z m0-143.104c-36.113067 0-65.493333 29.380267-65.493333 65.5104 0 36.113067 29.371733 65.501867 65.493333 65.501866s65.518933-29.380267 65.518934-65.501866c0-36.130133-29.397333-65.5104-65.518934-65.5104zM927.377067 983.1424c-8.849067 0-20.616533-9.2672-35.746134-21.179733-9.2416-7.287467-24.388267-19.4304-29.184-18.986667-37.5808 17.245867-80.699733 26.410667-124.373333 26.410667-88.593067 0-169.659733-36.7104-216.849067-98.193067l9.6-7.364267c44.919467 58.5216 122.3936 93.457067 207.249067 93.457067 41.949867 0 83.328-8.7808 119.6544-25.412267 9.130667-4.1984 21.691733 5.077333 41.386667 20.5824 8.576 6.7584 22.6816 17.860267 27.656533 18.525867 2.440533-4.9152-0.733867-25.429333-2.6624-37.879467-3.9168-25.386667-5.8112-40.064 0.9472-46.592 36.7104-35.490133 56.925867-80.5632 56.925867-126.916266 0-35.4304-11.716267-70.203733-33.8944-100.548267l9.770666-7.133867c23.697067 32.4352 36.224 69.666133 36.224 107.682134 0 49.655467-21.5296 97.8176-60.6208 135.620266-2.397867 3.6352 0.733867 23.927467 2.6112 36.0448 4.189867 27.170133 6.306133 44.125867-2.679466 50.107734a10.666667 10.666667 0 0 1-6.016 1.774933z" fill="#27B8CC" p-id="3422"></path></svg>