<?xml version="1.0" standalone="no"?><!DOCTYPE svg PUBLIC "-//W3C//DTD SVG 1.1//EN" "http://www.w3.org/Graphics/SVG/1.1/DTD/svg11.dtd"><svg t="1609038543888" class="icon" viewBox="0 0 1024 1024" version="1.1" xmlns="http://www.w3.org/2000/svg" p-id="2535" xmlns:xlink="http://www.w3.org/1999/xlink" width="200" height="200"><defs><style type="text/css"></style></defs><path d="M874.53 371.45V853.2c0 35.34-28.65 63.99-63.99 63.99H213.3c-35.34 0-63.99-28.65-63.99-63.99V371.45c-14.583 5.175-31.169-0.877-38.784-14.905-8.43-15.53-2.675-34.954 12.854-43.384l373.275-202.635a31.995 31.995 0 0 1 30.53 0L900.46 313.161c15.53 8.43 21.284 27.854 12.854 43.384-7.615 14.028-24.201 20.08-38.784 14.905zM213.3 337.158V853.2h597.24V337.158L511.92 175.05 213.3 337.158zM346.736 667.68l31.748-55.558c45.101 25.772 89.454 38.444 133.436 38.444 43.982 0 88.335-12.672 133.436-38.444l31.748 55.558c-54.439 31.108-109.626 46.876-165.184 46.876-55.558 0-110.745-15.768-165.184-46.876z" p-id="2536"></path></svg>