<?xml version="1.0" standalone="no"?><!DOCTYPE svg PUBLIC "-//W3C//DTD SVG 1.1//EN" "http://www.w3.org/Graphics/SVG/1.1/DTD/svg11.dtd"><svg t="1592277253020" class="icon" viewBox="0 0 1725 1024" version="1.1" xmlns="http://www.w3.org/2000/svg" p-id="6482" xmlns:xlink="http://www.w3.org/1999/xlink" width="336.9140625" height="200"><defs><style type="text/css"></style></defs><path d="M875.1958853 1024C592.9122053 1024 363.1958853 794.28368 363.1958853 512S592.9122053 0 875.1958853 0 1387.1958853 229.71632 1387.1958853 512 1157.4795643 1024 875.1958853 1024z m0-981.459941C616.3092383 42.540059 405.7359443 253.113353 405.7359443 512S616.3092383 981.459941 875.1958853 981.459941 1344.6558263 770.886647 1344.6558263 512 1134.0825323 42.540059 875.1958853 42.540059z" p-id="6483"></path><path d="M872.7650243 323.000593l53.78279 103.919288c6.988724 13.673591 20.054599 23.093175 35.551335 24.612463l116.377448 14.585163-82.3454 83.256974c-10.938872 10.938872-15.496736 26.131751-12.762018 41.324629l21.877745 115.162018-104.830861-52.567359c-6.684866-3.342433-13.673591-5.165579-20.966172-5.165579-7.900297 0-15.800593 2.127003-22.48546 5.773294L754.5644313 711.026706l17.623739-116.07359c2.127003-15.192878-3.038576-30.689614-14.281306-41.020772L672.5228883 474.017804l115.769733-18.839169c15.192878-2.430861 27.954896-12.154303 34.639762-26.131751l49.832641-106.046291m-1.21543-65.937092c-3.950148 0-8.204154 2.127003-10.0273 6.381009L790.7234813 413.854006c-1.519288 3.342433-4.557864 5.469436-8.204154 6.381009l-164.083086 27.043323c-9.115727 1.519288-12.762018 12.762018-5.773294 19.143027L733.5982593 580.367953c2.734718 2.430861 3.950148 6.381009 3.342433 9.723442l-24.91632 164.386943c-0.911573 6.988724 4.557864 12.762018 11.24273 12.762018 1.823145 0 3.646291-0.607715 5.165578-1.519288l145.851632-79.91454c1.823145-0.911573 3.646291-1.21543 5.165579-1.21543 1.823145 0 3.646291 0.607715 5.165578 1.21543l148.586351 74.748962c1.823145 0.607715 3.342433 1.21543 5.165578 1.21543 6.684866 0 12.45816-6.077151 10.938873-13.369733l-30.993472-163.475371c-0.607715-3.646291 0.607715-7.292582 3.038576-9.723442l116.985163-118.200594c6.684866-6.684866 2.430861-17.623739-6.684867-18.839169l-164.994658-20.966172c-3.646291-0.607715-6.684866-2.734718-8.508012-6.077151L881.5768943 263.140653c-2.127003-4.254006-5.773294-6.077151-10.0273-6.077152z" p-id="6484"></path></svg>