<?xml version="1.0" standalone="no"?><!DOCTYPE svg PUBLIC "-//W3C//DTD SVG 1.1//EN" "http://www.w3.org/Graphics/SVG/1.1/DTD/svg11.dtd"><svg t="1592277166208" class="icon" viewBox="0 0 1725 1024" version="1.1" xmlns="http://www.w3.org/2000/svg" p-id="4589" xmlns:xlink="http://www.w3.org/1999/xlink" width="336.9140625" height="200"><defs><style type="text/css"></style></defs><path d="M868.9516123 0C586.6679323 0 356.9516123 229.71632 356.9516123 512S586.6679323 1024 868.9516123 1024 1380.9516123 794.28368 1380.9516123 512 1151.2352913 0 868.9516123 0z m137.34362 595.256973l31.297329 164.690801-149.80178-75.356676c-4.557864-2.127003-9.419585-3.342433-13.977448-3.342433-5.165579 0-10.635015 1.519288-15.192878 3.950148l-146.763205 80.826113 25.524036-165.602374c1.519288-10.331157-1.823145-20.662315-9.723443-27.651039L605.2032443 457.913353l165.602374-27.347181c10.331157-1.519288 19.143027-8.204154 23.397033-17.623739L865.6091793 261.317507l76.875964 148.890208c4.557864 9.115727 13.977448 15.496736 24.004748 17.016024l166.210089 20.966172-117.896736 119.112166c-6.988724 7.292582-10.331157 17.927596-8.508012 27.954896z" p-id="4590"></path></svg>