<?xml version="1.0" standalone="no"?><!DOCTYPE svg PUBLIC "-//W3C//DTD SVG 1.1//EN" "http://www.w3.org/Graphics/SVG/1.1/DTD/svg11.dtd"><svg t="1598842940050" class="icon" viewBox="0 0 1024 1024" version="1.1" xmlns="http://www.w3.org/2000/svg" p-id="7791" xmlns:xlink="http://www.w3.org/1999/xlink" width="200" height="200"><defs><style type="text/css"></style></defs><path d="M908.1856 128H115.8144A115.9168 115.9168 0 0 0 0 243.7632v536.4736A115.9168 115.9168 0 0 0 115.8144 896h792.3712A115.9168 115.9168 0 0 0 1024 780.2368V243.7632A115.9168 115.9168 0 0 0 908.1856 128zM962.56 780.2368A54.3744 54.3744 0 0 1 908.1856 834.56H115.8144A54.3744 54.3744 0 0 1 61.44 780.2368V243.7632A54.3744 54.3744 0 0 1 115.8144 189.44h792.3712A54.3744 54.3744 0 0 1 962.56 243.7632z" fill="#333333" p-id="7792"></path><path d="M845.4144 282.5728l-326.0416 238.336c-16.6912 16.64-43.7248 16.64-62.5664-2.048L177.664 282.5728a36.5568 36.5568 0 1 0-47.3088 55.808l276.9408 234.24a115.8656 115.8656 0 0 0 82.2784 34.048 112.9472 112.9472 0 0 0 80.2304-32.8192l324.8128-237.2096a36.5568 36.5568 0 1 0-49.2032-54.0672z" fill="#333333" p-id="7793"></path></svg>