<svg width="200" height="200" viewBox="0 0 1024 1024" version="1.1" xmlns="http://www.w3.org/2000/svg" xmlns:xlink="http://www.w3.org/1999/xlink"><path d="M535,565 L336,565 C151,565 0,718 0,906 L0,926 C0,1024 148,1024 336,1024 L535,1024 C715,1024 870,1024 870,926 L870,906 C870,718 720,565 535,565 L535,565 Z M425,0 C279,0 159,121 159,270 C159,418 279,539 425,539 C572,539 691,418 691,270 C691,121 572,0 425,0 L425,0 Z M535,624 C688,624 813,750 813,906 L813,926 C813,932 812,933 808,937 C803,941 790,948 759,954 C703,965 621,965 535,965 L336,965 C247,965 164,965 109,954 C79,948 67,941 62,937 C59,935 58,933 58,926 L58,906 C58,750 182,624 336,624 L535,624 Z M425,59 C540,59 633,153 633,270 C633,386 540,481 425,481 C311,481 217,386 217,270 C217,153 311,59 425,59 L425,59 Z" id="Fill-1"/></svg>