<svg width="200" height="200" viewBox="0 0 1024 1024" version="1.1" xmlns="http://www.w3.org/2000/svg" xmlns:xlink="http://www.w3.org/1999/xlink"><path d="M807,1 C915,1 1002,88 1002,196 L1002,823 C1002,931 915,1019 807,1019 L221,1019 C113,1019 25,931 25,823 L25,196 C25,88 113,1 221,1 L807,1 Z M601,556 L241,556 C226,556 211,571 211,587 C211,602 226,618 241,618 L241,618 L601,618 C617,618 632,602 632,587 C632,571 617,556 601,556 L601,556 Z M786,314 L241,314 C226,314 211,330 211,345 C211,361 226,376 241,376 L241,376 L786,376 C807,376 817,366 817,345 C817,330 802,314 786,314 L786,314 Z" id="形状结合" fill-rule="nonzero"/></svg>