<svg width="200" height="200" viewBox="0 0 1024 1024" version="1.1" xmlns="http://www.w3.org/2000/svg" xmlns:xlink="http://www.w3.org/1999/xlink"><path d="M807,1 C915,1 1002,88 1002,196 L1002,823 C1002,931 915,1019 807,1019 L221,1019 C113,1019 25,931 25,823 L25,196 C25,88 113,1 221,1 L807,1 Z M807,62 L221,62 C149,62 87,124 87,196 L87,823 C87,895 149,957 221,957 L807,957 C879,957 940,895 940,823 L940,196 C940,124 879,62 807,62 Z M601,556 C617,556 632,571 632,587 C632,602 617,618 601,618 L241,618 C226,618 211,602 211,587 C211,571 226,556 241,556 L601,556 Z M786,314 C802,314 817,330 817,345 C817,366 807,376 786,376 L241,376 C226,376 211,361 211,345 C211,330 226,314 241,314 L786,314 Z" id="形状结合" fill-rule="nonzero"/></svg>