<?xml version="1.0" standalone="no"?><!DOCTYPE svg PUBLIC "-//W3C//DTD SVG 1.1//EN" "http://www.w3.org/Graphics/SVG/1.1/DTD/svg11.dtd"><svg t="1599985744455" class="icon" viewBox="0 0 1024 1024" version="1.1" xmlns="http://www.w3.org/2000/svg" p-id="9007" xmlns:xlink="http://www.w3.org/1999/xlink" width="200" height="200"><defs><style type="text/css"></style></defs><path d="M734.635 72.448c-16.811-16.47-49.408-29.781-72.96-29.781H204.8c-42.41 0-76.8 36.522-76.8 81.664v775.338c0 45.099 34.475 81.664 76.8 81.664h614.4c42.41 0 76.8-36.693 76.8-81.578V273.493c0-23.68-13.781-56.405-30.379-72.661L734.635 72.405zM341.333 298.667h341.334a42.667 42.667 0 0 1 0 85.333H341.333a42.667 42.667 0 1 1 0-85.333z m0 170.666H512a42.667 42.667 0 0 1 0 85.334H341.333a42.667 42.667 0 0 1 0-85.334z" p-id="9008"></path></svg>