<?xml version="1.0" standalone="no"?><!DOCTYPE svg PUBLIC "-//W3C//DTD SVG 1.1//EN" "http://www.w3.org/Graphics/SVG/1.1/DTD/svg11.dtd"><svg t="1599708174060" class="icon" viewBox="0 0 1024 1024" version="1.1" xmlns="http://www.w3.org/2000/svg" p-id="11909" xmlns:xlink="http://www.w3.org/1999/xlink" width="200" height="200"><defs><style type="text/css"></style></defs><path d="M482 152h60c5.333 0 8 2.667 8 8v704c0 5.333-2.667 8-8 8h-60c-5.333 0-8-2.667-8-8V160c0-5.333 2.667-8 8-8zM176 474h672c5.333 0 8 2.667 8 8v60c0 5.333-2.667 8-8 8H176c-5.333 0-8-2.667-8-8v-60c0-5.333 2.667-8 8-8z" fill="#000000" fill-opacity=".25" p-id="11910"></path></svg>