<?xml version="1.0" standalone="no"?><!DOCTYPE svg PUBLIC "-//W3C//DTD SVG 1.1//EN" "http://www.w3.org/Graphics/SVG/1.1/DTD/svg11.dtd"><svg t="1615284364934" class="icon" viewBox="0 0 1024 1024" version="1.1" xmlns="http://www.w3.org/2000/svg" p-id="2199" xmlns:xlink="http://www.w3.org/1999/xlink" width="200" height="200"><defs><style type="text/css"></style></defs><path d="M157.9 144.8h295.3c30 2.9 22.8 55.1 22.8 88.9V395c0 35 6.7 78-16.8 87.9-15.3 6.5-56.5 1.9-76.3 1.9H226.3c-36.2 0-85.6 8.5-91.2-22.5v-295c4.1-11 11.2-18.9 22.8-22.5m40.7 66.5v210.1h213.1v-213H199.6c-1.2 0.1-1.1 1.5-1 2.9m355.8-66.5h295.3c12 4.4 20.3 12.5 22.8 26.4v287.3c-2.7 11.9-9 22.1-20.8 25.4-19.3 5.3-51.3 1-74.3 1H625.7c-22.9 0-56.8 4.8-75.3-1-26.2-8.1-18.8-58.5-18.8-93.8V239.6c0-40.7-9.1-89.1 22.8-94.8m40.6 66.5v210.1h213.1v-213H596c-1.2 0.1-1.1 1.5-1 2.9m-299.3 61.5c29.7-5.5 53 14.2 53.5 41 0.7 35.3-35.9 54.7-64.4 40.1-32.6-16.7-30.4-73.4 10.9-81.1m396.4 0c69.9-12.9 68.6 96.3 0 85-43.6-7.1-45-76.7 0-85M451.3 881.6H158.9c-12.1-3.7-20.3-11.2-23.8-23.5V564c2.9-8.6 9.5-18.6 19.8-21.5 19.4-5.4 51.1-1 74.3-1h151.6c22.4 0 55-4.9 75.3 1 27.5 8 19.8 57.6 19.8 92.8v155.4c0.2 38 8.5 87.5-24.6 90.9M198.6 608v210.1h213.1v-213H199.6c-1.2 0.1-1.1 1.5-1 2.9m673.9-40.1V650c-2.3 27.7-0.3 59.6-1 88.9H660.4V691c-19.8-2.3-43.9-0.3-65.4-1-2.3 61.9-0.3 128-1 191.5h-38.7c-33.2-6.6-23.8-55.7-23.8-94.8V635.4c0-22.8-4.7-56.9 1-75.2 6.8-21.9 36.1-18.6 65.4-18.6h143.7v130H808c0.7-43-1.3-88.6 1-130 32-1.9 61.6-1.4 63.5 26.3M300.7 668.6c31.7-3.5 57.9 26.6 45.6 59.6-17 45.8-98.5 28.6-83.2-29.3 4.1-16 16.3-28 37.6-30.3m431.1 213h-71.4c0.7-25.1-1.3-52.8 1-76.2h70.4v76.2m140.7-76.2v49.8c-2.8 13.9-11 22.4-23.8 26.4h-50.5c0.7-25.1-1.3-52.8 1-76.2h73.3" fill="#3259CE" p-id="2200"></path></svg>