<?xml version="1.0" standalone="no"?><!DOCTYPE svg PUBLIC "-//W3C//DTD SVG 1.1//EN" "http://www.w3.org/Graphics/SVG/1.1/DTD/svg11.dtd"><svg t="1609848182853" class="icon" viewBox="0 0 1024 1024" version="1.1" xmlns="http://www.w3.org/2000/svg" p-id="1350" xmlns:xlink="http://www.w3.org/1999/xlink" width="200" height="200"><defs><style type="text/css"></style></defs><path d="M462.08 768a42.666667 42.666667 0 1 0 42.666667-42.666667 42.666667 42.666667 0 0 0-42.666667 42.666667z m42.666667-105.386667h-3.413334a35.84 35.84 0 0 1-32.426666-39.253333A231.253333 231.253333 0 0 1 554.666667 493.653333c64.426667-64.426667 65.706667-85.333333 66.56-106.666666a92.586667 92.586667 0 0 0-26.453334-69.12A112.213333 112.213333 0 0 0 512 283.306667a107.52 107.52 0 0 0-107.52 107.52 35.84 35.84 0 1 1-72.106667 0A179.2 179.2 0 0 1 512 213.333333a184.746667 184.746667 0 0 1 133.973333 57.173334 164.266667 164.266667 0 0 1 45.226667 120.32c-2.56 46.506667-16.64 82.773333-87.893333 153.6-35.84 35.84-58.88 63.146667-61.013334 85.333333a35.84 35.84 0 0 1-35.413333 34.133333z m316.16 159.146667A439.893333 439.893333 0 1 1 341.333333 106.666667a439.893333 439.893333 0 0 1 481.706667 716.373333zM512 0a512 512 0 1 0 512 512A512 512 0 0 0 512 0z" fill="#5E5C5C" p-id="1351"></path></svg>