<?xml version="1.0" standalone="no"?><!DOCTYPE svg PUBLIC "-//W3C//DTD SVG 1.1//EN" "http://www.w3.org/Graphics/SVG/1.1/DTD/svg11.dtd"><svg t="1610359557697" class="icon" viewBox="0 0 1024 1024" version="1.1" xmlns="http://www.w3.org/2000/svg" p-id="16951" xmlns:xlink="http://www.w3.org/1999/xlink" width="200" height="200"><defs><style type="text/css"></style></defs><path d="M800 247.885714c-16-34.971429-38.742857-66.4-67.771429-93.257143C673.257143 99.885714 594.971429 69.714286 512 69.714286s-161.257143 30.171429-220.228571 84.8c-29.028571 26.971429-51.771429 58.285714-67.771429 93.371428-16.685714 36.571429-25.142857 75.314286-25.142857 115.314286v30.857143c0 7.085714 5.714286 12.8 12.8 12.8h61.714286c7.085714 0 12.8-5.714286 12.8-12.8v-30.857143c0-113.714286 101.257143-206.171429 225.828571-206.171429s225.828571 92.457143 225.828571 206.171429c0 46.628571-16.571429 90.514286-48 127.085714-31.085714 36.228571-74.971429 62.171429-123.542857 73.142857-27.771429 6.285714-52.8 21.942857-70.514285 44.342858a126.685714 126.685714 0 0 0-27.314286 78.4v35.885714c0 7.085714 5.714286 12.8 12.8 12.8h61.714286c7.085714 0 12.8-5.714286 12.8-12.8v-35.885714c0-17.942857 12.457143-33.714286 29.714285-37.6 66.742857-15.085714 127.314286-51.085714 170.628572-101.371429 21.828571-25.485714 38.857143-53.828571 50.628571-84.571429 12.228571-31.885714 18.4-65.371429 18.4-99.428571 0-40-8.457143-78.857143-25.142857-115.314286zM512 826.285714c-35.314286 0-64 28.685714-64 64s28.685714 64 64 64 64-28.685714 64-64-28.685714-64-64-64z" p-id="16952"></path></svg>