<?xml version="1.0" standalone="no"?><!DOCTYPE svg PUBLIC "-//W3C//DTD SVG 1.1//EN" "http://www.w3.org/Graphics/SVG/1.1/DTD/svg11.dtd"><svg t="1599708035460" class="icon" viewBox="0 0 1024 1024" version="1.1" xmlns="http://www.w3.org/2000/svg" p-id="10989" xmlns:xlink="http://www.w3.org/1999/xlink" width="200" height="200"><defs><style type="text/css"></style></defs><path d="M891.817492 512.209778c0 19.516496-15.878642 35.395138-35.395138 35.395138H162.690336c-19.517519 0-35.395138-15.878642-35.395138-35.395138 0-19.517519 15.878642-35.395138 35.395138-35.395138h693.732018c19.516496 0 35.395138 15.877619 35.395138 35.395138z" fill="#ACACAC" p-id="10990"></path><path d="M129.46256 512.208754c0-18.35095 14.876826-33.228799 33.228799-33.228798h693.730995c18.351973 0 33.229822 14.876826 33.229822 33.228798 0 18.35095-14.876826 33.228799-33.228799 33.228799H162.690336c-18.35095 0.001023-33.227776-14.877849-33.227776-33.228799m-4.333701 0c0 20.711717 16.850783 37.562501 37.5625 37.562501h693.732018c20.711717 0 37.562501-16.850783 37.562501-37.562501 0-20.711717-16.850783-37.562501-37.563524-37.5625H162.690336c-20.711717 0-37.561477 16.850783-37.561477 37.5625z" fill="#ACACAC" p-id="10991"></path></svg>