<?xml version="1.0" standalone="no"?><!DOCTYPE svg PUBLIC "-//W3C//DTD SVG 1.1//EN" "http://www.w3.org/Graphics/SVG/1.1/DTD/svg11.dtd"><svg t="1597905246379" class="icon" viewBox="0 0 1024 1024" version="1.1" xmlns="http://www.w3.org/2000/svg" p-id="5245" xmlns:xlink="http://www.w3.org/1999/xlink" width="200" height="200"><defs><style type="text/css"></style></defs><path d="M368 502.4c-11.2-12.8-32-12.8-44.8-1.6-12.8 11.2-12.8 32-1.6 44.8L425.6 659.2c6.4 6.4 14.4 9.6 22.4 9.6s17.6-3.2 22.4-9.6l228.8-249.6c11.2-12.8 11.2-32-1.6-44.8a32.426667 32.426667 0 0 0-44.8 1.6l-206.4 224-78.4-88z" fill="#E27471" p-id="5246"></path><path d="M512 128c211.2 0 384 172.8 384 384s-172.8 384-384 384S128 723.2 128 512 300.8 128 512 128z m0-64C264 64 64 264 64 512s200 448 448 448 448-200 448-448S760 64 512 64z" fill="#E27471" p-id="5247"></path></svg>