<?xml version="1.0" standalone="no"?><!DOCTYPE svg PUBLIC "-//W3C//DTD SVG 1.1//EN" "http://www.w3.org/Graphics/SVG/1.1/DTD/svg11.dtd"><svg t="1608721051188" class="icon" viewBox="0 0 1024 1024" version="1.1" xmlns="http://www.w3.org/2000/svg" p-id="8195" xmlns:xlink="http://www.w3.org/1999/xlink" width="200" height="200"><defs><style type="text/css"></style></defs><path d="M362.39 842.26A60.63 60.63 0 0 1 302 779.33l3.32-83.83a158.9 158.9 0 0 0-63.59-133.56l-67.19-50.27a60.45 60.45 0 0 1 19.79-106.57l80.75-22.74c45.38-12.78 79.38-40.44 98.3-80a15.62 15.62 0 0 1 28.18 13.48c-22.94 47.89-63.73 81.29-118 96.56l-80.73 22.74a29.2 29.2 0 0 0-9.59 51.51l67.18 50.27a190.14 190.14 0 0 1 76.08 159.81l-3.32 83.85a29.22 29.22 0 0 0 46 25l68.56-48.36a190.1 190.1 0 0 1 175.51-23L702 763.34a29.2 29.2 0 0 0 38-36l-24.8-80.15a190.13 190.13 0 0 1 32.38-174l52-65.87A29.21 29.21 0 0 0 777 360l-83.88-1.18a190.19 190.19 0 0 1-155.51-84.57L491 204.44a29.2 29.2 0 0 0-51.94 6.81l-5.49 16.12A15.61 15.61 0 1 1 404 217.31l5.49-16.13A60.44 60.44 0 0 1 517 187.1l46.59 69.78a158.91 158.91 0 0 0 129.95 70.68l83.89 1.18a60.45 60.45 0 0 1 46.62 97.88l-52 65.87A158.89 158.89 0 0 0 745 637.92l24.8 80.15a60.43 60.43 0 0 1-78.68 74.56l-78.71-29.05a159 159 0 0 0-146.69 19.2l-68.56 48.36a60.21 60.21 0 0 1-34.77 11.12zM401.88 272.05l3.67-10.77" p-id="8196"></path><path d="M401.89 287.68a15.65 15.65 0 0 1-14.8-20.68l3.66-10.78a15.62 15.62 0 0 1 29.59 10L416.68 277a15.63 15.63 0 0 1-14.79 10.68zM691 599.38h-0.08a7.79 7.79 0 0 1-7.73-7.87c0.76-84.58 38.09-117.08 39.7-118.42A7.8 7.8 0 0 1 733 485c-0.55 0.48-33.49 30.13-34.18 106.65a7.83 7.83 0 0 1-7.82 7.73zM446.4 746.52a7.81 7.81 0 0 1-3.89-14.58l14.49-8.3a7.81 7.81 0 0 1 7.72 13.57l-14.43 8.27a7.79 7.79 0 0 1-3.89 1.04zM483.15 728.89a7.81 7.81 0 0 1-3.13-15c58.55-25.65 96.3-15.78 97.89-15.37a7.81 7.81 0 0 1-4.09 15.07c-0.49-0.09-34.57-8.57-87.55 14.61a7.77 7.77 0 0 1-3.12 0.69zM693.24 638.33a7.81 7.81 0 0 1-7.7-6.6l-2.24-14.34a7.82 7.82 0 0 1 6.51-8.92 7.9 7.9 0 0 1 8.92 6.51l2.27 14.34a7.82 7.82 0 0 1-6.51 8.92 8.21 8.21 0 0 1-1.25 0.09zM390.75 370.68a7.82 7.82 0 0 1-5.51-13.35c10.14-10.06 20.92-32.93 24.22-40.89a7.81 7.81 0 0 1 14.43 6c-0.53 1.29-13.22 31.69-27.63 46a7.81 7.81 0 0 1-5.51 2.24zM347.5 947.71H70a11.71 11.71 0 1 1 0-23.42h277.5a11.71 11.71 0 1 1 0 23.42zM931 1009.14H536.56a11.71 11.71 0 0 1 0-23.42H931a11.71 11.71 0 0 1 0 23.42zM195.09 221.31a5.79 5.79 0 0 1-3-0.84l-80.35-48.41a5.86 5.86 0 1 1 6-10l80.35 48.41a5.86 5.86 0 0 1-3 10.87zM908.92 743.8a5.72 5.72 0 0 1-2.75-0.69l-70.44-37.35a5.85 5.85 0 0 1 5.49-10.34l70.44 37.35a5.86 5.86 0 0 1-2.75 11zM597.15 904.72a5.86 5.86 0 0 1-5.86-5.86v-29.67a5.86 5.86 0 0 1 11.71 0v29.68a5.86 5.86 0 0 1-5.85 5.85zM168.09 795.53a5.86 5.86 0 0 1-3.54-10.53l40.08-30.39a5.86 5.86 0 0 1 7.08 9.33l-40.08 30.39a5.79 5.79 0 0 1-3.54 1.2zM718.2 249.38a5.86 5.86 0 0 1-4.24-9.9l49.76-52.28a5.86 5.86 0 0 1 8.48 8.08l-49.76 52.28a5.85 5.85 0 0 1-4.24 1.82zM622.6 92.24a5.64 5.64 0 0 1-1.28-0.14 5.86 5.86 0 0 1-4.44-7l14.76-65.66A5.86 5.86 0 0 1 643.08 22l-14.76 65.66a5.86 5.86 0 0 1-5.72 4.58zM1024 403.48l-92-3.64L981.13 322z m-71.28-14.54l51.48 2-24-45.61zM834 536.19l15.8-49.61 35.09 38.48z m20.8-26.73l-3.48 11 11.23-2.46zM269 922.5l-81.25-30.39 66.95-55.19z m-58.2-34.26l43.28 16.18-7.63-45.57zM188.13 339.14l-23.5-40.69h47z m-3.22-29l3.22 5.55 3.2-5.55zM62 523.54L0 512.17l40.82-48z m-39.95-19.23l22.07 4-7.53-21.13zM318 288.81l-31.72-29.71 41.59-12.59z m-16.47-26.16l12 11.22 3.74-16zM566.66 827.52l-51.1-10.34 34.44-39.1z m-36.31-15.31l24.6 5-8-23.79zM680.69 224.89L637 182.8l58.27-16.75z m-28.5-38.32l24.17 23.32 8.11-32.6z" p-id="8197"></path></svg>