<?xml version="1.0" standalone="no"?><!DOCTYPE svg PUBLIC "-//W3C//DTD SVG 1.1//EN" "http://www.w3.org/Graphics/SVG/1.1/DTD/svg11.dtd"><svg t="1597977133646" class="icon" viewBox="0 0 1024 1024" version="1.1" xmlns="http://www.w3.org/2000/svg" p-id="2575" xmlns:xlink="http://www.w3.org/1999/xlink" width="200" height="200"><defs><style type="text/css"></style></defs><path d="M512 17.066667C238.660267 17.066667 17.066667 238.660267 17.066667 512s221.5936 494.933333 494.933333 494.933333 494.933333-221.5936 494.933333-494.933333S785.339733 17.066667 512 17.066667z m0-17.066667c282.7776 0 512 229.2224 512 512 0 282.7776-229.2224 512-512 512C229.2224 1024 0 794.7776 0 512 0 229.2224 229.2224 0 512 0z" fill="#FB3318" p-id="2576"></path><path d="M739.157333 606.1568c2.594133 2.030933 5.1712 4.283733 7.662934 6.314667 16.7424 13.755733 23.381333 21.589333 23.927466 22.237866 0 0 1.655467 1.792 2.952534 3.413334 1.006933 0.853333 1.655467 1.7408 2.304 2.389333 0.085333 0.512 0.631467 0.904533 0.631466 1.143467 0.648533 0.648533 0.9216 1.109333 1.4848 1.7408l3.4816 5.205333v0.375467c6.724267 14.1312 1.9456 32.597333-2.56 41.9328-7.645867 16.554667-22.101333 33.3312-33.245866 43.264-22.084267 20.616533-52.394667 44.014933-90.3168 44.014933-4.0448 0-8.0896-0.187733-12.151467-0.648533-27.528533-3.584-69.597867-20.258133-115.8144-45.755734-49.885867-27.613867-97.9968-62.702933-135.509333-98.184533-37.546667-35.669333-74.2912-81.390933-103.560534-128.750933-26.9312-43.912533-44.612267-84.104533-48.298666-110.609067-2.423467-17.442133 1.757867-36.864 12.4416-55.842133 9.5232-17.169067 23.517867-33.604267 40.686933-47.872a35.84 35.84 0 0 0 2.986667-2.525867c13.175467-10.871467 24.6784-20.309333 43.554133-27.170133 6.7072-2.901333 12.936533-4.266667 19.0976-4.266667 5.751467 0 11.554133 1.143467 17.117867 3.5328h0.238933c2.440533 1.160533 6.724267 3.413333 7.68 4.061867 3.362133 1.604267 21.162667 10.9568 40.874667 37.000533 6.4 8.567467 16.298667 22.596267 23.569066 34.850133 12.066133 20.718933 19.968 38.519467 20.394667 39.406934l0.136533 0.512 1.604267 4.676266c5.034667 12.987733 2.048 26.385067-8.1408 36.096l-1.194667 1.143467-0.8704 0.887467-0.733866 0.512c-0.341333 0.4096-1.194667 1.006933-1.757867 1.501866-1.570133 1.3824-2.030933 1.792-2.628267 2.2528l-0.3584 0.290134a130.730667 130.730667 0 0 1-11.3664 6.8096c-1.706667 1.024-3.413333 1.877333-7.185066 4.266666h-0.273067c-6.365867 4.061867-12.475733 6.4512-18.926933 8.977067-5.0176 2.048-10.820267 4.1984-17.7664 7.748267-10.171733 4.9152-10.4448 18.773333-8.362667 23.466666 12.407467 27.392 34.321067 55.569067 71.287467 90.538667 32.597333 30.856533 64.631467 50.688 91.784533 66.048 3.037867 1.809067 6.434133 2.679467 9.847467 2.679467 9.489067 0 18.688-7.3216 22.7328-14.779734 3.242667-5.563733 6.075733-11.502933 8.840533-16.657066 1.9456-4.181333 4.061867-8.2432 5.9904-11.8784 4.693333-8.465067 8.192-14.0288 10.496-17.169067 1.467733-2.167467 2.850133-4.181333 4.5056-5.973333 4.1472-5.802667 10.581333-10.734933 17.578667-13.141334 3.874133-1.365333 8.192-2.013867 13.073066-2.013866 5.9904 0 11.434667 1.160533 15.940267 3.310933l11.776 6.0416h-0.170667c1.006933 0.4096 1.928533 0.853333 2.935467 1.518933 1.297067 0.9216 3.413333 2.013867 5.632 3.5328 4.215467 2.7648 11.127467 6.946133 19.217067 12.3904 1.297067 0.8704 2.679467 1.877333 4.1472 2.901334l32.597333 24.251733z m-105.130666-22.510933c-0.8192 1.160533-4.949333 6.724267-11.605334 18.466133-1.826133 3.1744-3.584 6.946133-5.512533 11.008-2.850133 5.290667-6.161067 11.605333-9.301333 17.664-7.6288 13.533867-23.927467 26.88-43.7248 26.88-7.458133 0-14.916267-1.979733-21.8112-5.802667-28.16-16.008533-61.832533-36.727467-96.256-69.307733-39.304533-37.5296-62.9248-67.584-76.731734-98.133333-3.549867-8.106667-4.096-18.602667-1.4336-28.416a40.516267 40.516267 0 0 1 21.128534-26.555734c7.8336-3.771733 14.045867-6.161067 19.524266-8.465066a111.786667 111.786667 0 0 0 15.36-6.912c4.386133-2.6624 6.5024-4.0448 8.260267-4.9152 2.218667-1.160533 3.959467-2.167467 9.284267-5.5808 0.341333-0.221867 0.648533-0.648533 1.109333-1.143467 1.160533-0.887467 1.792-1.536 2.3552-1.757867 0.324267-0.4096 0.648533-0.8704 0.955733-1.143466l0.238934-0.136534c3.1744-2.901333 3.857067-6.314667 2.2528-10.359466l-0.221867-0.597334-1.3824-3.822933c-1.194667-2.901333-8.533333-18.688-18.773333-36.352a420.266667 420.266667 0 0 0-22.016-32.597333c-16.571733-22.101333-31.163733-29.6448-32.136534-30.071467l-0.4608-0.221867c-1.706667-0.9216-4.9152-2.542933-6.519466-3.413333a24.285867 24.285867 0 0 0-7.68-1.518933c-2.9696 0-6.178133 0.8704-10.001067 2.389333l-0.5632 0.238933c-15.223467 5.563733-24.251733 13.1584-36.9152 23.466667a23.1936 23.1936 0 0 1-2.986667 2.4576c-30.549333 25.224533-48.059733 57.2928-44.612266 81.834667 3.242667 22.971733 20.0704 60.996267 44.936533 101.410133 28.2112 45.704533 63.522133 89.668267 99.566933 124.0064 36.130133 34.338133 82.619733 67.84 131.037867 94.549333 42.717867 23.927467 82.670933 39.68 107.264 42.888534 2.850133 0.4608 5.888 0.5632 8.840533 0.5632 23.1936 0 46.114133-11.52 74.376534-37.666134 8.840533-8.004267 21.4528-22.493867 27.528533-35.8912 3.874133-7.594667 4.693333-18.090667 2.304-21.640533l-2.304-2.901333v-0.221867l-0.170667-0.238933a109.585067 109.585067 0 0 0-4.522666-5.3248s-5.888-6.9632-21.077334-19.438934a498.568533 498.568533 0 0 0-42.4448-31.8464c-13.346133-8.977067-23.381333-15.018667-25.4976-16.298666l-11.229866-5.802667a16.469333 16.469333 0 0 0-10.496 0c-2.7648 0.8704-5.5296 3.310933-6.178134 4.6592l-1.7408 2.013867z" fill="#FB1D00" p-id="2577"></path></svg>