<?xml version="1.0" standalone="no"?><!DOCTYPE svg PUBLIC "-//W3C//DTD SVG 1.1//EN" "http://www.w3.org/Graphics/SVG/1.1/DTD/svg11.dtd"><svg t="1597905122260" class="icon" viewBox="0 0 1024 1024" version="1.1" xmlns="http://www.w3.org/2000/svg" p-id="2173" xmlns:xlink="http://www.w3.org/1999/xlink" width="200" height="200"><defs><style type="text/css"></style></defs><path d="M668.416 389.504c11.52 0 20.224 0 31.808 2.944-28.928-133.76-167.936-229.76-330.112-229.76C190.528 162.688 42.816 284.8 42.816 441.792c0 90.176 49.28 165.76 130.304 220.992l-31.808 98.88 112.896-58.112c40.576 8.704 72.448 17.408 115.84 17.408h31.872a271.104 271.104 0 0 1-8.64-69.76C390.336 505.792 512 389.504 668.416 389.504z m-176.64-90.176c25.984 0 40.512 17.472 40.512 40.704a39.68 39.68 0 0 1-40.576 40.704c-23.168 0-49.28-17.408-49.28-40.704 0-23.232 26.112-40.704 49.28-40.704zM262.848 380.8c-23.168 0-49.28-17.408-49.28-40.704 0-26.176 26.112-40.704 49.28-40.704a39.68 39.68 0 0 1 40.576 40.704c0 26.24-14.528 40.704-40.576 40.704z" fill="#999999" p-id="2174"></path><path d="M966.72 645.376c0-130.816-130.368-238.464-278.08-238.464-156.352 0-278.016 107.648-278.016 238.464 0 130.88 121.6 238.4 278.016 238.4 31.872 0 66.624-8.704 98.496-17.408l89.792 49.408-23.168-81.408c63.68-49.472 112.96-116.288 112.96-188.992z m-367.808-40.704c-17.408 0-31.872-17.472-31.872-32 0-17.472 17.344-32 31.872-32 26.048 0 40.512 17.472 40.512 32 0 14.528-17.344 32-40.512 32z m179.52 0c-17.344 0-31.872-17.472-31.872-32 0-17.472 17.408-32 31.872-32 23.168 0 40.576 17.472 40.576 32 0 14.528-14.528 32-40.576 32z" fill="#999999" p-id="2175"></path></svg>